<?xml version="1.0" encoding="UTF-8" standalone="no"?>
<svg
   xmlns:dc="http://purl.org/dc/elements/1.1/"
   xmlns:cc="http://creativecommons.org/ns#"
   xmlns:rdf="http://www.w3.org/1999/02/22-rdf-syntax-ns#"
   xmlns:svg="http://www.w3.org/2000/svg"
   xmlns="http://www.w3.org/2000/svg"
   xmlns:sodipodi="http://sodipodi.sourceforge.net/DTD/sodipodi-0.dtd"
   xmlns:inkscape="http://www.inkscape.org/namespaces/inkscape"
   version="1.1"
   id="Ebene_1"
   x="0px"
   y="0px"
   viewBox="0 0 300.20001 200.80001"
   xml:space="preserve"
   sodipodi:docname="WID_Logo_Neuer Claim_RGB_white.svg"
   width="300.20001"
   height="200.8"
   inkscape:version="1.0.1 (c497b03c, 2020-09-10)"><metadata
   id="metadata898"><rdf:RDF><cc:Work
       rdf:about=""><dc:format>image/svg+xml</dc:format><dc:type
         rdf:resource="http://purl.org/dc/dcmitype/StillImage" /><dc:title></dc:title></cc:Work></rdf:RDF></metadata><defs
   id="defs896" /><sodipodi:namedview
   pagecolor="#ffffff"
   bordercolor="#666666"
   borderopacity="1"
   objecttolerance="10"
   gridtolerance="10"
   guidetolerance="10"
   inkscape:pageopacity="0"
   inkscape:pageshadow="2"
   inkscape:window-width="1133"
   inkscape:window-height="612"
   id="namedview894"
   showgrid="false"
   fit-margin-top="0"
   fit-margin-left="0"
   fit-margin-right="0"
   fit-margin-bottom="0"
   inkscape:zoom="1.2192903"
   inkscape:cx="150.61303"
   inkscape:cy="170.82089"
   inkscape:window-x="2087"
   inkscape:window-y="187"
   inkscape:window-maximized="0"
   inkscape:current-layer="Ebene_1"
   inkscape:document-rotation="0" />
<style
   type="text/css"
   id="style833">
	.st0{fill:#AEB0B1;}
	.st1{fill:#B80042;}
	.st2{fill:#181815;}
	.st3{fill:#FFFFFF;}
</style>
<g
   id="g843"
   transform="translate(-66.3,-45)"
   style="fill:#ffffff;fill-opacity:1">
	<rect
   x="205.60001"
   y="130.5"
   class="st2"
   width="18.299999"
   height="73.099998"
   id="rect835"
   style="fill:#ffffff;fill-opacity:1" />
	<path
   class="st2"
   d="M 155.2,167 141,130.1 c -0.8,-2.2 -2.8,-3.6 -5.1,-3.6 -2.3,0 -4.3,1.4 -5.1,3.5 L 115.9,167 86.1,93.9 H 66.3 L 111,205.2 c 0.8,2.1 2.8,3.4 5,3.4 2.3,0 4.3,-1.4 5.1,-3.5 l 14.5,-38.1 13.9,37.9 c 0.8,2.2 2.8,3.6 5.1,3.6 2.2,0 4.2,-1.3 5,-3.3 L 191,130.5 h -19.8 z"
   id="path837"
   style="fill:#ffffff;fill-opacity:1" />
	<path
   class="st2"
   d="m 341.2,180.2 c -2.4,2.2 -5.1,3.8 -8.1,4.8 -3,1 -7,1.4 -11.8,1.4 h -1.5 v -47.9 h 1.5 c 8.9,0 15.6,2 20,6.1 4.9,4.6 7.3,10.4 7.3,17.9 0,7.3 -2.5,13.1 -7.4,17.7 M 353.7,132 c -4.2,-3.8 -8.9,-6.6 -14.1,-8.2 -4.7,-1.6 -11,-2.4 -19,-2.4 h -15.9 -3.2 v 3.2 5.9 69.9 3.2 h 3.2 15.1 0.6 c 8.1,0 14.3,-0.7 18.8,-2.3 4.8,-1.5 9.6,-4.3 14,-8.1 8.8,-7.8 13.3,-18.1 13.3,-30.7 0,-12.5 -4.3,-22.8 -12.8,-30.5"
   id="path839"
   style="fill:#ffffff;fill-opacity:1" />
	<path
   class="st2"
   d="m 290.2,185.3 v 18.3 h -45.7 v -81.9 c 1.1,0.1 2.1,0.2 3.2,0.2 5.5,0 10.6,-1.5 15.1,-4.1 v 67.5 z"
   id="path841"
   style="fill:#ffffff;fill-opacity:1" />
</g>
<g
   id="g855"
   transform="translate(-66.3,-45)">
	<path
   class="st1"
   d="m 187.7,91.6 c 0,4.1 0.9,8.1 2.7,11.7 -3.7,5.1 -9.6,8.1 -15.9,8.1 -10.9,0 -19.8,-8.9 -19.8,-19.8 0,-7.1 3.9,-13.7 10.1,-17.2 1.5,-0.9 3.2,-1.5 4.8,-1.9 1.5,-0.4 3.2,-0.6 4.8,-0.6 6.3,0 12.2,3 15.9,8.1 -0.8,1.7 -1.5,3.5 -1.9,5.3 -0.5,1.8 -0.7,3.7 -0.7,5.4 0,0.3 0,0.6 0,0.9"
   id="path845" />
	<path
   class="st1"
   d="m 208.5,64.9 v 0.7 c -0.1,0 -0.3,0.1 -0.4,0.1 -1.9,0.5 -3.7,1.1 -5.3,1.9 -3.1,1.5 -5.9,3.6 -8.4,6.3 -5.1,-5.7 -12.3,-9 -20,-9 -1.8,0 -3.7,0.2 -5.4,0.5 v -0.6 c 0,-10.9 8.9,-19.8 19.8,-19.8 6.5,0 12.6,3.2 16.3,8.5 1.4,2.1 2.4,4.3 3,6.8 0.2,1.6 0.4,3.1 0.4,4.6"
   id="path847" />
	<path
   class="st1"
   d="m 234.1,91.6 c 0,4.2 -1.3,8.2 -3.7,11.5 -1,1.4 -2.2,2.6 -3.5,3.7 v 0 c -3.5,2.9 -7.8,4.4 -12.5,4.4 -6.4,0 -12.5,-3.2 -16.2,-8.4 -1.4,-2.1 -2.5,-4.3 -3,-6.7 -0.4,-1.4 -0.6,-3 -0.6,-4.6 0,-0.4 0,-0.8 0.1,-1.3 0.1,-1.2 0.2,-2.3 0.5,-3.4 0.1,-0.7 0.3,-1.4 0.7,-2.2 0.5,-1.6 1.3,-3 2.2,-4.4 1.7,-2.5 4.1,-4.5 6.7,-6 1.1,-0.6 2.3,-1.1 3.5,-1.5 0.4,-0.2 0.8,-0.3 1.3,-0.4 1.4,-0.4 2.9,-0.6 4.5,-0.6 h 0.3 c 4.6,0 9,1.6 12.5,4.5 1.4,1.1 2.6,2.4 3.6,3.8 1.1,1.5 2,3.2 2.6,5 0.5,1.6 0.9,3.2 1,5 0,0.6 0,1.1 0,1.6"
   id="path849" />
	<path
   class="st1"
   d="m 248.5,64.9 v 0 c -0.3,0 -0.5,0 -0.8,0 -6.1,0 -12,2.1 -16.7,5.9 -4.5,-3.6 -9.9,-5.6 -15.6,-5.8 v -0.1 c 0,-4.1 -0.9,-8 -2.6,-11.6 3.7,-5.1 9.6,-8.2 16,-8.2 10.9,0.1 19.7,8.9 19.7,19.8"
   id="path851" />
	<path
   class="st1"
   d="m 267.5,91.6 c 0,10.9 -8.9,19.8 -19.7,19.8 -4.4,0 -8.5,-1.4 -11.9,-4 3.4,-4.6 5.2,-10.1 5.2,-15.8 0,-1.3 -0.1,-2.4 -0.2,-3.4 -0.2,-1.8 -0.7,-3.7 -1.3,-5.5 -0.9,-2.4 -2.1,-4.7 -3.6,-6.8 3.4,-2.6 7.5,-4 11.9,-4 0.2,0 0.4,0 0.6,0 1.8,0 3.5,0.3 5.1,0.8 8.3,2.6 13.9,10.1 13.9,18.9"
   id="path853" />
</g>
<g
   id="g891"
   transform="translate(-66.3,-45)"
   style="fill:#ffffff;fill-opacity:1">
	<path
   class="st2"
   d="m 115.2,239.6 c -2,0 -3.6,-0.7 -4.8,-2 -1.1,-1.3 -1.7,-3.2 -1.7,-5.5 v -12.5 c 0,-0.2 0.1,-0.3 0.3,-0.3 h 2.6 c 0.2,0 0.3,0.1 0.3,0.3 v 12.3 c 0,1.5 0.3,2.6 0.8,3.3 0.5,0.7 1.4,1 2.5,1 2.2,0 3.3,-1.4 3.3,-4.4 v -12.2 c 0,-0.2 0.1,-0.3 0.3,-0.3 h 2.6 c 0.2,0 0.3,0.1 0.3,0.3 v 12.5 c 0,1.5 -0.3,2.8 -0.8,3.9 -0.5,1.1 -1.3,2 -2.3,2.6 -0.8,0.6 -2,1 -3.4,1 z"
   id="path857"
   style="fill:#ffffff;fill-opacity:1" />
	<path
   class="st2"
   d="m 132.8,239 v -9 c 0,-1.1 -0.2,-1.9 -0.5,-2.4 -0.3,-0.5 -0.8,-0.7 -1.5,-0.7 -1,0 -1.6,0.3 -2.1,1 -0.5,0.7 -0.7,2 -0.7,3.7 v 7.3 c 0,0.2 -0.1,0.3 -0.3,0.3 h -2.5 c -0.2,0 -0.3,-0.1 -0.3,-0.3 v -14.6 c 0,-0.2 0.1,-0.3 0.3,-0.3 h 2 c 0.2,0 0.3,0.1 0.3,0.3 l 0.2,1.2 c 0.3,-0.5 0.8,-0.9 1.3,-1.2 0.7,-0.4 1.5,-0.6 2.3,-0.6 3,0 4.6,1.9 4.6,5.7 v 9.5 c 0,0.2 -0.1,0.3 -0.3,0.3 h -2.5 c -0.1,0.1 -0.3,-0.1 -0.3,-0.2 z"
   id="path859"
   style="fill:#ffffff;fill-opacity:1" />
	<path
   class="st2"
   d="m 143.1,245.8 c -1.7,0 -3,-0.4 -3.9,-1.1 -0.9,-0.8 -1.4,-1.9 -1.4,-3.3 0,-1 0.3,-1.8 0.8,-2.5 0.4,-0.5 0.9,-0.9 1.5,-1.2 -0.2,-0.2 -0.3,-0.4 -0.4,-0.6 -0.2,-0.4 -0.4,-0.9 -0.4,-1.4 0,-0.6 0.1,-1.1 0.4,-1.6 0.2,-0.3 0.5,-0.6 0.8,-0.9 -0.5,-0.4 -0.9,-0.9 -1.2,-1.5 -0.4,-0.8 -0.6,-1.7 -0.6,-2.7 0,-1.7 0.4,-3 1.3,-3.9 0.9,-0.9 2.1,-1.4 3.7,-1.4 0.3,0 0.7,0 1.1,0.1 0.4,0.1 0.6,0.1 0.8,0.2 h 4 c 0.2,0 0.3,0.1 0.3,0.3 v 1.7 c 0,0.1 -0.1,0.3 -0.3,0.3 l -1.6,0.4 c 0.1,0.2 0.2,0.5 0.3,0.8 0.1,0.5 0.2,1 0.2,1.5 0,1.6 -0.5,2.9 -1.4,3.8 -0.9,0.9 -2.2,1.4 -3.7,1.4 -0.3,0 -0.7,0 -0.9,-0.1 -0.4,0.3 -0.6,0.7 -0.6,1.1 0,0.2 0.1,0.4 0.2,0.5 0.1,0.1 0.4,0.2 1.2,0.2 h 2.1 c 1.4,0 2.5,0.4 3.2,1.1 0.7,0.7 1.1,1.8 1.1,3.2 0,1.8 -0.6,3.1 -1.8,4.1 -0.9,1 -2.6,1.5 -4.8,1.5 z m 3.8,-5.1 c 0,-0.5 -0.1,-0.9 -0.4,-1.1 -0.2,-0.2 -0.7,-0.3 -1.9,-0.3 h -1.9 c -0.6,0 -1.1,0.2 -1.5,0.5 -0.4,0.4 -0.5,0.8 -0.5,1.5 0,0.6 0.2,1 0.6,1.3 0.4,0.3 1.1,0.5 1.9,0.5 1.3,0 2.3,-0.2 2.9,-0.7 0.5,-0.5 0.8,-1 0.8,-1.7 z M 145.5,229 c 0,-0.9 -0.2,-1.6 -0.5,-2 -0.3,-0.4 -0.7,-0.6 -1.4,-0.6 -0.6,0 -1.1,0.2 -1.4,0.6 -0.3,0.5 -0.5,1.1 -0.5,2.1 0,0.8 0.2,1.5 0.5,1.9 0.3,0.4 0.8,0.6 1.4,0.6 0.9,0 1.9,-0.3 1.9,-2.6 z"
   id="path861"
   style="fill:#ffffff;fill-opacity:1" />
	<path
   class="st2"
   d="m 161.2,225.6 c 0.9,1.2 1.4,2.9 1.4,5 v 1.7 c 0,0.2 -0.1,0.3 -0.3,0.3 h -7.5 c 0.1,1.2 0.4,2.1 0.9,2.8 0.5,0.7 1.2,1 2.2,1 0.7,0 1.3,-0.1 1.9,-0.2 0.6,-0.2 1.2,-0.4 1.9,-0.8 0,0 0.1,0 0.2,0 0.1,0 0.1,0 0.2,0 0.1,0.1 0.2,0.2 0.2,0.3 v 2.5 c 0,0.1 -0.1,0.2 -0.2,0.3 -0.6,0.4 -1.3,0.6 -2,0.8 -0.6,0.2 -1.4,0.2 -2.2,0.2 -1.9,0 -3.5,-0.7 -4.6,-2.1 -1.1,-1.4 -1.6,-3.3 -1.6,-5.7 0,-2.4 0.5,-4.4 1.5,-5.8 1,-1.5 2.4,-2.2 4.2,-2.2 1.5,0 2.8,0.7 3.8,1.9 z m -6.4,4.2 h 4.7 c 0,-1 -0.3,-1.7 -0.6,-2.2 -0.4,-0.5 -0.9,-0.8 -1.6,-0.8 -0.7,0 -1.2,0.3 -1.7,0.8 -0.4,0.5 -0.7,1.2 -0.8,2.2 z"
   id="path863"
   style="fill:#ffffff;fill-opacity:1" />
	<path
   class="st2"
   d="m 174.2,236.6 v 2.4 c 0,0.2 -0.1,0.3 -0.3,0.3 h -9 c -0.2,0 -0.3,-0.1 -0.3,-0.3 v -2 c 0,-0.1 0,-0.1 0,-0.2 l 5.7,-9.9 h -5.1 c -0.2,0 -0.3,-0.1 -0.3,-0.3 v -2.4 c 0,-0.2 0.1,-0.3 0.3,-0.3 h 8.4 c 0.2,0 0.3,0.1 0.3,0.3 v 2.2 c 0,0.1 0,0.1 0,0.2 l -5.6,9.6 h 5.5 c 0.3,0.1 0.4,0.2 0.4,0.4 z"
   id="path865"
   style="fill:#ffffff;fill-opacity:1" />
	<path
   class="st2"
   d="m 186.7,229.1 v 9.9 c 0,0.2 -0.1,0.3 -0.3,0.3 h -1.8 c -0.2,0 -0.3,-0.1 -0.3,-0.2 l -0.4,-1.4 c -0.5,0.7 -1,1.1 -1.5,1.4 -0.6,0.3 -1.4,0.5 -2.4,0.5 -1.3,0 -2.3,-0.4 -3,-1.3 -0.7,-0.8 -1.1,-2 -1.1,-3.5 0,-1.6 0.5,-2.8 1.5,-3.7 1,-0.8 2.4,-1.3 4.3,-1.3 l 1.7,-0.1 v -0.5 c 0,-0.9 -0.2,-1.5 -0.5,-1.9 -0.3,-0.4 -0.7,-0.6 -1.4,-0.6 -0.6,0 -1.1,0.1 -1.6,0.3 -0.5,0.2 -1.1,0.5 -1.6,0.8 -0.1,0 -0.1,0 -0.2,0 0,0 -0.1,0 -0.1,0 -0.1,0 -0.2,-0.1 -0.2,-0.2 l -0.8,-2.2 c -0.1,-0.1 0,-0.3 0.1,-0.4 0.7,-0.4 1.4,-0.8 2.2,-1 0.8,-0.2 1.5,-0.3 2.3,-0.3 1.6,0 2.8,0.4 3.6,1.3 1.1,0.9 1.5,2.3 1.5,4.1 z m -8.2,-7.3 c -0.3,-0.3 -0.4,-0.8 -0.4,-1.4 0,-0.6 0.2,-1.1 0.5,-1.4 0.3,-0.3 0.7,-0.5 1.1,-0.5 0.5,0 0.9,0.2 1.2,0.5 0.3,0.3 0.4,0.8 0.4,1.3 0,0.5 -0.1,1 -0.4,1.3 -0.3,0.4 -0.7,0.5 -1.2,0.5 -0.5,0.2 -0.9,0 -1.2,-0.3 z m 5.1,10.5 -1.2,0.1 c -1.1,0 -1.9,0.3 -2.4,0.7 -0.5,0.4 -0.7,0.9 -0.7,1.8 0,0.6 0.1,1 0.4,1.3 0.3,0.3 0.6,0.4 1.2,0.4 0.8,0 1.5,-0.3 2,-0.8 0.5,-0.6 0.7,-1.4 0.7,-2.4 z m -0.9,-10.5 c -0.3,-0.3 -0.4,-0.8 -0.4,-1.4 0,-0.6 0.2,-1.1 0.5,-1.4 0.3,-0.3 0.7,-0.5 1.1,-0.5 0.5,0 0.9,0.2 1.2,0.5 0.3,0.3 0.4,0.8 0.4,1.3 0,0.6 -0.1,1 -0.4,1.3 -0.3,0.4 -0.7,0.5 -1.1,0.5 -0.6,0.2 -1,0 -1.3,-0.3 z"
   id="path867"
   style="fill:#ffffff;fill-opacity:1" />
	<path
   class="st2"
   d="M 192.5,239.3 H 190 c -0.2,0 -0.3,-0.1 -0.3,-0.3 v -20.6 c 0,-0.2 0.1,-0.3 0.3,-0.3 h 2.5 c 0.2,0 0.3,0.1 0.3,0.3 v 5.2 c 0,0.5 0,1.1 -0.1,1.7 0.3,-0.4 0.6,-0.7 1,-0.9 0.7,-0.4 1.4,-0.6 2.3,-0.6 3.1,0 4.6,1.9 4.6,5.7 v 9.5 c 0,0.2 -0.1,0.3 -0.3,0.3 h -2.5 c -0.2,0 -0.3,-0.1 -0.3,-0.3 v -9 c 0,-1.1 -0.2,-1.9 -0.5,-2.4 -0.3,-0.5 -0.8,-0.7 -1.5,-0.7 -0.9,0 -1.6,0.3 -2.1,1 -0.5,0.7 -0.7,2 -0.7,3.8 v 7.3 c 0.1,0.1 0,0.3 -0.2,0.3 z"
   id="path869"
   style="fill:#ffffff;fill-opacity:1" />
	<path
   class="st2"
   d="m 219.1,239.3 c -0.2,0 -0.3,-0.1 -0.3,-0.3 v -9 c 0,-1.1 -0.2,-1.8 -0.5,-2.3 -0.3,-0.5 -0.7,-0.7 -1.3,-0.7 -0.9,0 -1.5,0.3 -1.9,1 -0.4,0.7 -0.6,1.8 -0.6,3.3 v 7.8 c 0,0.2 -0.1,0.3 -0.3,0.3 h -2.5 c -0.2,0 -0.3,-0.1 -0.3,-0.3 v -9 c 0,-1.1 -0.2,-1.8 -0.5,-2.3 -0.3,-0.5 -0.7,-0.7 -1.3,-0.7 -0.9,0 -1.5,0.3 -1.9,1 -0.4,0.7 -0.6,2 -0.6,3.7 v 7.3 c 0,0.2 -0.1,0.3 -0.3,0.3 h -2.5 c -0.2,0 -0.3,-0.1 -0.3,-0.3 v -14.6 c 0,-0.2 0.1,-0.3 0.3,-0.3 h 2 c 0.2,0 0.3,0.1 0.3,0.3 l 0.2,1.2 c 0.3,-0.5 0.7,-0.8 1.2,-1.1 0.7,-0.4 1.4,-0.6 2.2,-0.6 1.8,0 3,0.7 3.7,2.1 0.4,-0.6 0.8,-1 1.4,-1.4 0.7,-0.4 1.5,-0.7 2.4,-0.7 1.5,0 2.6,0.5 3.4,1.5 0.7,0.9 1,2.4 1,4.2 v 9.5 c 0,0.2 -0.1,0.3 -0.3,0.3 h -2.7 z"
   id="path871"
   style="fill:#ffffff;fill-opacity:1" />
	<path
   class="st2"
   d="m 232.3,236.1 c 0.1,0.1 0.1,0.2 0.1,0.3 v 2.3 c 0,0.1 -0.1,0.2 -0.2,0.3 -0.3,0.2 -0.7,0.3 -1.2,0.4 -0.5,0.1 -0.9,0.2 -1.4,0.2 -2.6,0 -3.9,-1.7 -3.9,-5 V 227 h -1.3 c -0.2,0 -0.3,-0.1 -0.3,-0.3 v -1.4 c 0,-0.1 0.1,-0.2 0.1,-0.3 l 1.6,-1.1 0.8,-3 c 0,-0.1 0.2,-0.2 0.3,-0.2 h 1.6 c 0.2,0 0.3,0.1 0.3,0.3 v 2.9 h 3 c 0.2,0 0.3,0.1 0.3,0.3 v 2.4 c 0,0.2 -0.1,0.3 -0.3,0.3 h -3 v 7.5 c 0,0.7 0.1,1.2 0.4,1.5 0.2,0.3 0.5,0.4 0.9,0.4 0.6,0 1.1,-0.1 1.7,-0.3 0,0 0.1,0 0.1,0 0.3,0 0.3,0.1 0.4,0.1 z"
   id="path873"
   style="fill:#ffffff;fill-opacity:1" />
	<path
   class="st2"
   d="m 243.7,225.6 c 0.9,1.2 1.4,2.9 1.4,5 v 1.7 c 0,0.2 -0.1,0.3 -0.3,0.3 h -7.5 c 0.1,1.2 0.4,2.1 0.8,2.8 0.5,0.7 1.2,1 2.2,1 0.7,0 1.3,-0.1 1.9,-0.2 0.6,-0.2 1.2,-0.4 1.9,-0.8 0,0 0.1,0 0.2,0 0.1,0 0.1,0 0.2,0 0.1,0.1 0.2,0.2 0.2,0.3 v 2.5 c 0,0.1 -0.1,0.2 -0.2,0.3 -0.6,0.4 -1.3,0.6 -2,0.8 -0.6,0.2 -1.4,0.2 -2.2,0.2 -1.9,0 -3.5,-0.7 -4.6,-2.1 -1.1,-1.4 -1.6,-3.3 -1.6,-5.7 0,-2.4 0.5,-4.4 1.5,-5.8 1,-1.5 2.4,-2.2 4.2,-2.2 1.6,0 2.9,0.7 3.9,1.9 z m -6.4,4.2 h 4.7 c 0,-1 -0.3,-1.7 -0.6,-2.2 -0.4,-0.5 -0.9,-0.8 -1.6,-0.8 -0.7,0 -1.2,0.3 -1.7,0.8 -0.4,0.5 -0.7,1.2 -0.8,2.2 z"
   id="path875"
   style="fill:#ffffff;fill-opacity:1" />
	<path
   class="st2"
   d="m 255.5,224.2 -0.2,2.9 c 0,0.1 -0.1,0.2 -0.1,0.2 -0.1,0 -0.1,0.1 -0.2,0.1 0,0 -0.1,0 -0.1,0 -0.3,-0.1 -0.7,-0.1 -1,-0.1 -0.9,0 -1.6,0.4 -2.2,1.1 -0.6,0.8 -0.9,1.7 -0.9,3 v 7.7 c 0,0.2 -0.1,0.3 -0.3,0.3 H 248 c -0.2,0 -0.3,-0.1 -0.3,-0.3 v -14.6 c 0,-0.2 0.1,-0.3 0.3,-0.3 h 2 c 0.2,0 0.3,0.1 0.3,0.3 l 0.2,1.7 c 0.3,-0.6 0.8,-1.1 1.2,-1.5 0.7,-0.6 1.4,-0.8 2.2,-0.8 0.5,0 1,0 1.3,0.1 0.2,-0.1 0.3,0.1 0.3,0.2 z"
   id="path877"
   style="fill:#ffffff;fill-opacity:1" />
	<path
   class="st2"
   d="m 267.3,236.8 c -1.3,-1.8 -2,-4.3 -2,-7.5 0,-3.2 0.8,-5.7 2.2,-7.5 1.5,-1.8 3.6,-2.8 6.2,-2.8 1.7,0 3.3,0.4 4.8,1.2 0.1,0.1 0.2,0.2 0.2,0.4 l -0.9,2.6 c 0,0.1 -0.1,0.2 -0.2,0.2 0,0 -0.1,0 -0.1,0 -0.1,0 -0.1,0 -0.2,0 -1.2,-0.7 -2.4,-1 -3.6,-1 -1.6,0 -2.8,0.6 -3.7,1.8 -0.9,1.2 -1.4,3 -1.4,5.1 0,2.3 0.4,4 1.3,5.2 0.8,1.2 2,1.7 3.5,1.7 0.7,0 1.5,-0.1 2.3,-0.3 v -4.4 h -2.9 c -0.2,0 -0.3,-0.1 -0.3,-0.3 v -2.7 c 0,-0.2 0.1,-0.3 0.3,-0.3 h 5.8 c 0.2,0 0.3,0.1 0.3,0.3 v 9.7 c 0,0.1 -0.1,0.2 -0.2,0.3 -1,0.4 -1.9,0.7 -2.8,0.8 -0.9,0.2 -1.8,0.2 -2.9,0.2 -2.4,0.1 -4.3,-0.9 -5.7,-2.7 z"
   id="path879"
   style="fill:#ffffff;fill-opacity:1" />
	<path
   class="st2"
   d="m 291.1,225.6 c 0.9,1.2 1.4,2.9 1.4,5 v 1.7 c 0,0.2 -0.1,0.3 -0.3,0.3 h -7.5 c 0.1,1.2 0.4,2.1 0.8,2.8 0.5,0.7 1.2,1 2.2,1 0.7,0 1.3,-0.1 1.9,-0.2 0.6,-0.2 1.2,-0.4 1.9,-0.8 0,0 0.1,0 0.2,0 0.1,0 0.1,0 0.2,0 0.1,0.1 0.2,0.2 0.2,0.3 v 2.5 c 0,0.1 -0.1,0.2 -0.2,0.3 -0.6,0.4 -1.3,0.6 -2,0.8 -0.6,0.2 -1.4,0.2 -2.2,0.2 -1.9,0 -3.5,-0.7 -4.6,-2.1 -1.1,-1.4 -1.6,-3.3 -1.6,-5.7 0,-2.4 0.5,-4.4 1.5,-5.8 1,-1.5 2.4,-2.2 4.2,-2.2 1.6,0 2.9,0.7 3.9,1.9 z m -6.4,4.2 h 4.7 c 0,-1 -0.3,-1.7 -0.6,-2.2 -0.4,-0.5 -0.9,-0.8 -1.6,-0.8 -0.7,0 -1.2,0.3 -1.7,0.8 -0.4,0.5 -0.7,1.2 -0.8,2.2 z"
   id="path881"
   style="fill:#ffffff;fill-opacity:1" />
	<path
   class="st2"
   d="m 302.9,239 v -9 c 0,-1.1 -0.2,-1.9 -0.5,-2.4 -0.3,-0.5 -0.8,-0.7 -1.5,-0.7 -1,0 -1.6,0.3 -2.1,1 -0.5,0.7 -0.7,2 -0.7,3.7 v 7.3 c 0,0.2 -0.1,0.3 -0.3,0.3 h -2.5 c -0.2,0 -0.3,-0.1 -0.3,-0.3 v -14.6 c 0,-0.2 0.1,-0.3 0.3,-0.3 h 2 c 0.2,0 0.3,0.1 0.3,0.3 l 0.2,1.2 c 0.3,-0.5 0.8,-0.9 1.3,-1.2 0.7,-0.4 1.5,-0.6 2.3,-0.6 3,0 4.6,1.9 4.6,5.7 v 9.5 c 0,0.2 -0.1,0.3 -0.3,0.3 h -2.5 c -0.2,0.1 -0.3,-0.1 -0.3,-0.2 z"
   id="path883"
   style="fill:#ffffff;fill-opacity:1" />
	<path
   class="st2"
   d="M 320.3,224.3 V 239 c 0,0.2 -0.1,0.3 -0.3,0.3 h -2 c -0.2,0 -0.3,-0.1 -0.3,-0.3 l -0.2,-1.2 c -0.3,0.5 -0.8,0.8 -1.3,1.1 -0.7,0.4 -1.5,0.6 -2.4,0.6 -1.5,0 -2.7,-0.5 -3.5,-1.4 -0.8,-0.9 -1.1,-2.4 -1.1,-4.2 v -9.6 c 0,-0.2 0.1,-0.3 0.3,-0.3 h 2.5 c 0.2,0 0.3,0.1 0.3,0.3 v 9 c 0,1.1 0.2,1.8 0.5,2.3 0.3,0.5 0.8,0.7 1.5,0.7 0.9,0 1.6,-0.3 2.1,-1 0.5,-0.7 0.7,-2 0.7,-3.8 v -7.3 c 0,-0.2 0.1,-0.3 0.3,-0.3 h 2.5 c 0.2,0.1 0.4,0.2 0.4,0.4 z"
   id="path885"
   style="fill:#ffffff;fill-opacity:1" />
	<path
   class="st2"
   d="m 331.4,238.3 c -0.9,0.8 -2.2,1.2 -3.8,1.2 -1.6,0 -3,-0.3 -4,-0.9 -0.1,-0.1 -0.2,-0.2 -0.2,-0.3 v -2.7 c 0,-0.1 0.1,-0.2 0.2,-0.3 0,0 0.1,0 0.2,0 0.1,0 0.1,0 0.2,0 1.3,0.8 2.6,1.2 3.7,1.2 1.8,0 2,-0.8 2,-1.4 0,-0.3 -0.1,-0.6 -0.2,-0.7 -0.1,-0.2 -0.4,-0.4 -0.8,-0.7 -0.4,-0.3 -0.9,-0.6 -1.6,-0.9 -1.4,-0.7 -2.4,-1.4 -2.9,-2.1 -0.5,-0.7 -0.8,-1.6 -0.8,-2.7 0,-1.3 0.5,-2.4 1.3,-3.2 0.9,-0.7 2.1,-1.1 3.5,-1.1 1.4,0 2.8,0.4 4.1,1.1 0.1,0.1 0.2,0.2 0.1,0.4 l -0.8,2.3 c 0,0.1 -0.1,0.2 -0.2,0.2 0,0 -0.1,0 -0.1,0 -0.1,0 -0.1,0 -0.1,0 -1.2,-0.6 -2.3,-0.9 -3.1,-0.9 -1.7,0 -1.7,0.8 -1.7,1.1 0,0.4 0.1,0.7 0.4,0.9 0.3,0.3 1.1,0.7 2.2,1.3 1,0.5 1.7,0.9 2.2,1.3 0.5,0.4 0.8,0.9 1.1,1.5 0.2,0.5 0.3,1.2 0.3,1.9 0.2,1.5 -0.3,2.7 -1.2,3.5 z"
   id="path887"
   style="fill:#ffffff;fill-opacity:1" />
	<path
   class="st2"
   d="m 343.4,238.3 c -0.9,0.8 -2.2,1.2 -3.8,1.2 -1.6,0 -3,-0.3 -4,-0.9 -0.1,-0.1 -0.2,-0.2 -0.2,-0.3 v -2.7 c 0,-0.1 0.1,-0.2 0.2,-0.3 0.1,0 0.1,0 0.2,0 0.1,0 0.1,0 0.2,0 1.3,0.8 2.6,1.2 3.7,1.2 1.8,0 2,-0.8 2,-1.4 0,-0.3 -0.1,-0.6 -0.2,-0.7 -0.1,-0.2 -0.4,-0.4 -0.8,-0.7 -0.4,-0.3 -0.9,-0.6 -1.6,-0.9 -1.4,-0.7 -2.4,-1.4 -2.9,-2.1 -0.5,-0.7 -0.8,-1.6 -0.8,-2.7 0,-1.3 0.5,-2.4 1.3,-3.2 0.9,-0.7 2.1,-1.1 3.5,-1.1 1.4,0 2.8,0.4 4.1,1.1 0.1,0.1 0.2,0.2 0.1,0.4 l -0.8,2.3 c 0,0.1 -0.1,0.2 -0.2,0.2 0,0 -0.1,0 -0.1,0 -0.1,0 -0.1,0 -0.1,0 -1.2,-0.6 -2.3,-0.9 -3.1,-0.9 -1.7,0 -1.7,0.8 -1.7,1.1 0,0.4 0.1,0.7 0.4,0.9 0.3,0.3 1.1,0.7 2.2,1.3 1,0.5 1.7,0.9 2.2,1.3 0.5,0.4 0.8,0.9 1.1,1.5 0.2,0.5 0.3,1.2 0.3,1.9 0.2,1.5 -0.3,2.7 -1.2,3.5 z"
   id="path889"
   style="fill:#ffffff;fill-opacity:1" />
</g>
</svg>
